{"title":"Jai Gangaajal {2016} 1/3 DesiScr Rip x264 MP3 {Team DUS} - jnmjy","uid":13765400,"size":1544944189,"categoryP":"video","categoryS":"movies","magnet":"?xt=urn:btih:7abe42b9f78ca21d57fd686172817f8a8f8b71cb&amp;dn=Jai+Gangaajal+%7B2016%7D+1%2F3+DesiScr+Rip+x264+MP3+%7BTeam+DUS%7D+-+jnmjy&amp;tr=udp%3A%2F%2Ftracker.leechers-paradise.org%3A6969&amp;tr=udp%3A%2F%2Fzer0day.ch%3A1337&amp;tr=udp%3A%2F%2Fopen.demonii.com%3A1337&amp;tr=udp%3A%2F%2Ftracker.coppersurfer.tk%3A6969&amp;tr=udp%3A%2F%2Fexodus.desync.com%3A6969","seeders":1,"leechers":0,"uploader":"makintos13","files":1,"time":1457236518,"description":"Jai Gangaajal {2016} 1/3 DesiScr Rip x264 MP3 {Team DUS} - jnmjy \r\n\r\nScreens:\r\n \nhttp://imgmak.com/Kc4\r\n \nhttp://imgmak.com/Kc8\r\n \nhttp://imgmak.com/KcL\r\n \nhttp://imgmak.com/KcX\r\n \nhttp://imgmak.com/KnC\r\n \nhttp://imgmak.com/KnK\r\n \nhttp://imgmak.com/KnT\r\n\r\n::::::::::::::::\r\n\r\nYear.............: 2015\r\nSource: DUS Exclusive\r\nRipper...........: jnmjy\r\n\r\nGeneral\r\nFormat : Matroska\r\nFormat version : Version 2\r\nFile size : 1.44 GiB\r\nDuration : 2h 28mn\r\nOverall bit rate : 1 391 Kbps\r\nEncoded date : UTC 2016-03-05 07:13:37\r\nWriting application : mkvmerge v8.5.2 ('Crosses') 32bit\r\nWriting library : libebml v1.3.3 + libmatroska v1.4.4\r\nDURATION : 02:28:08.448000000\r\n\r\nVideo\r\nID : 1\r\nFormat : AVC\r\nFormat/Info : Advanced Video Codec\r\nFormat profile :   \r\nFormat settings, CABAC : Yes\r\nFormat settings, ReFrames : 4 frames\r\nCodec ID : V_MPEG4/ISO/AVC\r\nDuration : 2h 28mn\r\nBit rate : 1 268 Kbps\r\nWidth : 688 pixels\r\nHeight : 288 pixels\r\nDisplay aspect ratio : 2.40:1\r\nFrame rate mode : Constant\r\nFrame rate : 29.970 fps\r\nColor space : YUV\r\nChroma subsampling : 4:2:0\r\nBit depth : 8 bits\r\nScan type : Progressive\r\nBits/(Pixel*Frame) : 0.214\r\nStream size : 1.28 GiB (89%)\r\nWriting library : x264 core 148 r2638 7599210\r\nLanguage : English\r\nDefault : Yes\r\nForced : No\r\nDURATION : 02:28:08.412000000\r\nNUMBER_OF_FRAMES : 266386\r\n\r\n\r\nAudio\r\nID : 2\r\nFormat : MPEG Audio\r\nFormat version : Version 1\r\nFormat profile : Layer 2\r\nCodec ID : A_MPEG/L2\r\nCodec ID/Hint : MP2\r\nDuration : 2h 28mn\r\nBit rate mode : Constant\r\nBit rate : 128 Kbps\r\nChannel(s) : 2 channels\r\nSampling rate : 48.0 KHz\r\nCompression mode : Lossy\r\nStream size : 136 MiB (9%)\r\nDefault : Yes","torrent":{"xt":"urn:btih:7abe42b9f78ca21d57fd686172817f8a8f8b71cb","amp;dn":"Jai+Gangaajal+%7B2016%7D+1%2F3+DesiScr+Rip+x264+MP3+%7BTeam+DUS%7D+-+jnmjy","amp;tr":["udp%3A%2F%2Ftracker.leechers-paradise.org%3A6969","udp%3A%2F%2Fzer0day.ch%3A1337","udp%3A%2F%2Fopen.demonii.com%3A1337","udp%3A%2F%2Ftracker.coppersurfer.tk%3A6969","udp%3A%2F%2Fexodus.desync.com%3A6969"],"infoHash":"7abe42b9f78ca21d57fd686172817f8a8f8b71cb","infoHashBuffer":{"type":"Buffer","data":[122,190,66,185,247,140,162,29,87,253,104,97,114,129,127,138,143,139,113,203]},"announce":[],"urlList":[]}}